<svg xmlns="http://www.w3.org/2000/svg" width="800" height="1000" viewBox="0 0 800 1000" dir="rtl">
<defs>
 <linearGradient id="bg" x1="90" y1="20" x2="720" y2="970"><stop stop-color="#17152E"/><stop offset=".52" stop-color="#101027"/><stop offset="1" stop-color="#070713"/></linearGradient>
 <linearGradient id="accent" x1="120" y1="180" x2="680" y2="760"><stop stop-color="#8B5CF6"/><stop offset="1" stop-color="#F59E0B"/></linearGradient>
 <radialGradient id="glow" cx="50%" cy="32%" r="50%"><stop stop-color="#8B5CF6" stop-opacity=".38"/><stop offset="1" stop-color="#8B5CF6" stop-opacity="0"/></radialGradient>
 <filter id="blur"><feGaussianBlur stdDeviation="34"/></filter>
</defs>
<rect width="800" height="1000" rx="64" fill="url(#bg)"/>
<circle cx="620" cy="160" r="220" fill="#F59E0B" opacity=".13" filter="url(#blur)"/>
<circle cx="180" cy="500" r="250" fill="url(#glow)"/>
<circle cx="400" cy="420" r="245" fill="none" stroke="white" stroke-opacity=".07" stroke-width="2"/>
<circle cx="400" cy="420" r="185" fill="none" stroke="white" stroke-opacity=".055" stroke-width="2"/>
<g><rect x="156" y="435.0" width="12" height="70" rx="6" fill="url(#accent)" opacity="0.55"/><rect x="195" y="410.0" width="12" height="120" rx="6" fill="url(#accent)" opacity="0.70"/><rect x="234" y="375.0" width="12" height="190" rx="6" fill="url(#accent)" opacity="0.85"/><rect x="273" y="415.0" width="12" height="110" rx="6" fill="url(#accent)" opacity="0.55"/><rect x="312" y="350.0" width="12" height="240" rx="6" fill="url(#accent)" opacity="0.70"/><rect x="351" y="395.0" width="12" height="150" rx="6" fill="url(#accent)" opacity="0.85"/><rect x="390" y="365.0" width="12" height="210" rx="6" fill="url(#accent)" opacity="0.55"/><rect x="429" y="422.5" width="12" height="95" rx="6" fill="url(#accent)" opacity="0.70"/><rect x="468" y="382.5" width="12" height="175" rx="6" fill="url(#accent)" opacity="0.85"/><rect x="507" y="407.5" width="12" height="125" rx="6" fill="url(#accent)" opacity="0.55"/><rect x="546" y="355.0" width="12" height="230" rx="6" fill="url(#accent)" opacity="0.70"/><rect x="585" y="397.5" width="12" height="145" rx="6" fill="url(#accent)" opacity="0.85"/><rect x="624" y="427.5" width="12" height="85" rx="6" fill="url(#accent)" opacity="0.55"/></g>
<circle cx="400" cy="420" r="78" fill="#0B0B1D" stroke="url(#accent)" stroke-width="8"/>
<text x="400" y="452" fill="white" font-size="92" font-family="Tahoma,Arial" font-weight="900" text-anchor="middle">ج</text>
<rect x="56" y="56" width="150" height="50" rx="25" fill="white" fill-opacity=".08" stroke="white" stroke-opacity=".1"/>
<text x="131" y="89" fill="white" font-size="22" font-family="Tahoma,Arial" font-weight="700" text-anchor="middle">جريمة</text>
<text x="744" y="90" fill="white" fill-opacity=".72" font-size="23" font-family="Tahoma,Arial" font-weight="700" text-anchor="end">جَزَل ORIGINALS</text>
<text x="400" y="765" fill="white" font-size="66" font-family="Tahoma,Arial" font-weight="900" text-anchor="middle">قضية القصر</text>
<text x="400" y="825" fill="white" fill-opacity=".63" font-size="25" font-family="Tahoma,Arial" font-weight="700" text-anchor="middle">كل دليل يخفي سر</text>
<rect x="280" y="875" width="240" height="4" rx="2" fill="url(#accent)"/>
<text x="400" y="930" fill="white" fill-opacity=".76" font-size="22" font-family="Tahoma,Arial" font-weight="700" text-anchor="middle">اسمع القصة للآخر</text>
</svg>